<svg xmlns="http://www.w3.org/2000/svg" width="20.5" height="20.5" viewBox="0 0 20.5 20.5">
  <g id="_2" data-name="2" transform="translate(-1.75 -1.75)">
    <path id="Subtraction_1" data-name="Subtraction 1" d="M-791.667-476.5h-8.668a4.757,4.757,0,0,1-3.594-1.448,5.331,5.331,0,0,1-1.321-3.718v-8.168a5.327,5.327,0,0,1,1.325-3.718,4.756,4.756,0,0,1,3.59-1.448h8.67a4.758,4.758,0,0,1,3.594,1.448,5.33,5.33,0,0,1,1.322,3.718v8.168a5.329,5.329,0,0,1-1.322,3.718A4.76,4.76,0,0,1-791.667-476.5Zm-7.893-10.251a.993.993,0,0,0-.707.293.994.994,0,0,0-.293.707.994.994,0,0,0,.293.707l2.374,2.373a1,1,0,0,0,.707.292.993.993,0,0,0,.706-.293l4.747-4.746a.993.993,0,0,0,.293-.707.993.993,0,0,0-.293-.707.994.994,0,0,0-.707-.293.994.994,0,0,0-.707.293l-4.039,4.038-1.667-1.666A.993.993,0,0,0-799.56-486.75Z" transform="translate(808 497.75)" fill="#fff" opacity="0"/>
    <g id="Iconly_Light_Tick-Square" data-name="Iconly/Light/Tick-Square" transform="translate(0 0)">
      <g id="Tick-Square" transform="translate(2 2)">
        <path id="Stroke-1" d="M14.334.75H5.665C2.644.75.75,2.889.75,5.916v8.168c0,3.027,1.885,5.166,4.915,5.166h8.668c3.031,0,4.917-2.139,4.917-5.166V5.916C19.25,2.889,17.364.75,14.334.75Z" fill="none" stroke="#fff" stroke-linecap="round" stroke-linejoin="round" stroke-width="2" fill-rule="evenodd"/>
      </g>
    </g>
  </g>
</svg>
