<svg xmlns="http://www.w3.org/2000/svg" width="18.958" height="20.499" viewBox="0 0 18.958 20.499">
  <g id="Iconly_Light_Delete" data-name="Iconly/Light/Delete" transform="translate(-2.75 -1.751)" opacity="0.5">
    <g id="Delete" transform="translate(3 2)">
      <path id="Stroke-1" d="M16.325,7.468s-.543,6.735-.858,9.572a2.238,2.238,0,0,1-2.358,2.174c-2.609.047-5.221.05-7.829,0a2.214,2.214,0,0,1-2.289-2.162c-.317-2.862-.857-9.579-.857-9.579" fill="none" stroke="#fff" stroke-linecap="round" stroke-linejoin="round" stroke-width="2" fill-rule="evenodd"/>
      <line id="Stroke-3" x1="16.958" transform="translate(0.75 4.24)" fill="none" stroke="#fff" stroke-linecap="round" stroke-linejoin="round" stroke-width="2"/>
      <path id="Stroke-5" d="M14.441,4.24a1.648,1.648,0,0,1-1.615-1.324L12.583,1.7A1.28,1.28,0,0,0,11.346.751H7.113A1.28,1.28,0,0,0,5.876,1.7L5.633,2.916A1.648,1.648,0,0,1,4.018,4.24" fill="none" stroke="#fff" stroke-linecap="round" stroke-linejoin="round" stroke-width="2" fill-rule="evenodd"/>
    </g>
  </g>
</svg>
